<?xml version="1.0" encoding="utf-8"?>
<svg version="1.1" width="1000" height="1000" viewBox="0 0 1000 1000" xmlns="http://www.w3.org/2000/svg">
  <desc>Created with Fabric.js 3.5.0</desc>
  <rect x="0" y="0" width="100%" height="100%" fill="rgba(255,255,255,0)"/>
  <g transform="matrix(0 -1.7756 1.7756 0 500.0066 499.9919)" id="403820">
    <path style="stroke: none; stroke-width: 1; stroke-dasharray: none; stroke-linecap: butt; stroke-dashoffset: 0; stroke-linejoin: miter; stroke-miterlimit: 4; is-custom-font: none; font-file-url: none; fill: rgb(0,0,0); fill-rule: nonzero; opacity: 1;" vector-effect="non-scaling-stroke" transform=" translate(-256, -272)" d="M 320 408 C 320 401.572 319.154 395.34 317.566 389.4 C 338.2 376.7 352.595 353.893 352 328 C 351.467 304.825 348.084 307.731 348.084 307.731 C 348.084 307.731 473.834 308.666 473.035 305.677 C 493.933 305.116 510.822 273.337 509.578 247.467 C 508.124 217.223 486.48 210.019 486.48 210.019 C 486.88 210.27 512 207.7 512 168 C 512 128.3 479.7 96 440 96 L 243.7 96 C 227.5 76.51 203.2 64 176 64 L 126.1 64 C 94.02 64 64.47 81.1 49 108.6 L 17.65 164.5 C 6.104 185.1 0 208.4 0 231.8 L 0 339.7 C 0 417.1 64.6 480 144 480 L 248 480 C 287.7 480 320 447.7 320 408 Z M 280 304 C 293.23 304 304 314.78 304 328 C 304 341.22 293.2 352 280 352 L 232.1 352 C 218.9 352 208 341.2 208 328 C 208 314.8 218.8 304 232 304 L 280 304 Z M 439.978 225.462 C 453.208 225.462 465.788 233.915 465.788 247.135 C 465.788 260.355 454.719 271.122 441.519 271.122 L 264 272 C 260.971 272 258.125 271.299 255.455 270.27 C 260.7 259.9 264 248.4 264 236 L 264 224 L 439.978 225.462 Z M 440 144 C 453.23 144 464 154.78 464 168 C 464 181.22 453.2 192 440 192 L 264 192 L 264 152 C 264 149.314 263.443 146.783 263.207 144.16 C 263.5 144.2 263.7 144 264 144 L 440 144 Z M 48 339.7 L 48 231.8 C 48 216.55 51.984 201.39 59.52 187.92 L 90.86 132.14 C 97.84 119.7 111.4 112 126.1 112 L 176 112 C 198.06 112 216 129.94 216 152 L 216 236 C 216 251.44 203.44 264 188 264 C 172.56 264 160 251.4 160 236 L 160 184 C 160 170.8 149.3 160 136 160 C 122.7 160 112 170.8 112 184 L 112 236 C 112 269.23 133.58 297.25 163.36 307.54 C 161.3 314 160 320.9 160 328 C 160 333.041 161.166 337.836 162.178 342.66 C 137.4 354 120 378.1 120 408 C 120 415.684 121.557 422.94 123.836 429.87 C 80.56 420.9 48 383.9 48 339.7 Z M 192 432 C 178.77 432 168 421.22 168 408 C 168 394.78 178.8 384 192 384 L 248 384 C 261.23 384 272 394.78 272 408 C 272 421.22 261.23 432 248 432 L 192 432 Z" stroke-linecap="round"/>
  </g>
</svg>