<svg xmlns="http://www.w3.org/2000/svg" xmlns:xlink="http://www.w3.org/1999/xlink" version="1.1" width="1000" height="1000" viewBox="0 0 1000 1000" xml:space="preserve">
<desc>Created with Fabric.js 3.5.0</desc>
<defs>
</defs>
<rect x="0" y="0" width="100%" height="100%" fill="rgba(255,255,255,0)"/>
<g transform="matrix(0 -1.7756 1.7756 0 500.0066 499.9919)" id="403820">
<path style="stroke: none; stroke-width: 1; stroke-dasharray: none; stroke-linecap: butt; stroke-dashoffset: 0; stroke-linejoin: miter; stroke-miterlimit: 4; is-custom-font: none; font-file-url: none; fill: rgb(0,0,0); fill-rule: nonzero; opacity: 1;" vector-effect="non-scaling-stroke" transform=" translate(-256, -272)" d="M 320 408 c 0 -6.428 -0.8457 -12.66 -2.434 -18.6 C 338.2 376.7 352 353.9 352 328 c 0 -6.428 -0.8457 -12.66 -2.434 -18.6 C 370.2 296.7 384 273.9 384 248 c 0 -2.705 -0.1484 -5.373 -0.4414 -8 H 440 C 479.7 240 512 207.7 512 168 S 479.7 96 440 96 H 243.7 C 227.5 76.51 203.2 64 176 64 H 126.1 C 94.02 64 64.47 81.1 49 108.6 L 17.65 164.5 C 6.104 185.1 0 208.4 0 231.8 v 107.9 C 0 417.1 64.6 480 144 480 h 104 C 287.7 480 320 447.7 320 408 z M 280 304 c 13.23 0 24 10.78 24 24 S 293.2 352 280 352 H 232.1 C 218.9 352 208 341.2 208 328 S 218.8 304 232 304 H 280 z M 312 224 c 13.23 0 24 10.78 24 24 S 325.2 272 312 272 h -48 c -3.029 0 -5.875 -0.7012 -8.545 -1.73 C 260.7 259.9 264 248.4 264 236 V 224 H 312 z M 440 144 c 13.23 0 24 10.78 24 24 S 453.2 192 440 192 h -176 V 152 c 0 -2.686 -0.5566 -5.217 -0.793 -7.84 C 263.5 144.2 263.7 144 264 144 H 440 z M 48 339.7 V 231.8 c 0 -15.25 3.984 -30.41 11.52 -43.88 l 31.34 -55.78 C 97.84 119.7 111.4 112 126.1 112 H 176 c 22.06 0 40 17.94 40 40 v 84 c 0 15.44 -12.56 28 -28 28 S 160 251.4 160 236 V 184 C 160 170.8 149.3 160 136 160 S 112 170.8 112 184 v 52 c 0 33.23 21.58 61.25 51.36 71.54 C 161.3 314 160 320.9 160 328 c 0 5.041 1.166 9.836 2.178 14.66 C 137.4 354 120 378.1 120 408 c 0 7.684 1.557 14.94 3.836 21.87 C 80.56 420.9 48 383.9 48 339.7 z M 192 432 c -13.23 0 -24 -10.78 -24 -24 S 178.8 384 192 384 h 56 c 13.23 0 24 10.78 24 24 s -10.77 24 -24 24 H 192 z" stroke-linecap="round"/>
</g>
</svg>