<svg width="250" height="220" viewBox="0 0 250 220" fill="none" xmlns="http://www.w3.org/2000/svg">
<path d="M210.615 44.5947L246.519 21.4404C247.372 20.8714 248.106 20.1398 248.677 19.2873C249.248 18.4348 249.646 17.4782 249.847 16.472C250.048 15.4659 250.049 14.4299 249.85 13.4233C249.651 12.4167 249.256 11.4592 248.687 10.6055L244.355 4.10645C243.786 3.25258 243.055 2.51916 242.202 1.94808C241.35 1.377 240.393 0.979449 239.387 0.778128C238.381 0.576807 237.345 0.575662 236.338 0.774757C235.332 0.973851 234.374 1.36929 233.521 1.93848L179.78 36.6064C155.483 32.3193 132.432 31.875 125 31.875C107.202 31.875 0 34.0967 0 86.6357V164.873C0 179.653 13.4277 193.037 35.1562 202.891V153.135C35.1562 150.027 36.3909 147.046 38.5886 144.848C40.7863 142.651 43.767 141.416 46.875 141.416C49.983 141.416 52.9637 142.651 55.1614 144.848C57.3591 147.046 58.5937 150.027 58.5938 153.135V211.206C74.7314 215.654 93.2959 218.56 113.281 219.375V168.784C113.281 165.676 114.516 162.695 116.714 160.498C118.911 158.3 121.892 157.065 125 157.065C128.108 157.065 131.089 158.3 133.286 160.498C135.484 162.695 136.719 165.676 136.719 168.784V219.375C156.704 218.56 175.269 215.654 191.406 211.206V153.135C191.406 150.027 192.641 147.046 194.839 144.848C197.036 142.651 200.017 141.416 203.125 141.416C206.233 141.416 209.214 142.651 211.411 144.848C213.609 147.046 214.844 150.027 214.844 153.135V202.891C236.572 193.037 250 179.653 250 164.873V86.6357C250 65.4834 232.539 52.5732 210.615 44.5947ZM125 117.93C68.9062 117.93 23.4375 103.921 23.4375 86.6357C23.4375 69.3506 68.9062 55.3467 125 55.3467C133.374 55.3467 141.47 55.6934 149.258 56.2793L113.706 79.2285C112.853 79.7979 112.12 80.5298 111.549 81.3825C110.978 82.2352 110.581 83.1919 110.38 84.198C110.18 85.2041 110.179 86.24 110.378 87.2464C110.578 88.2528 110.974 89.21 111.543 90.0635L115.874 96.5625C116.443 97.4164 117.175 98.1498 118.027 98.7209C118.88 99.2919 119.836 99.6895 120.842 99.8908C121.849 100.092 122.885 100.093 123.891 99.8942C124.898 99.6951 125.855 99.2997 126.709 98.7305L184.639 61.3672C210.005 67.0312 226.562 76.2305 226.562 86.6357C226.562 103.921 181.089 117.93 125 117.93Z" fill="black"/>
</svg>
