<svg width="250" height="250" viewBox="0 0 250 250" fill="none" xmlns="http://www.w3.org/2000/svg">
<path d="M245.425 19.043L230.957 4.57519C229.506 3.12389 227.783 1.97264 225.888 1.18719C223.992 0.401738 221.959 -0.00253296 219.907 -0.00253296C217.855 -0.00253296 215.823 0.401738 213.927 1.18719C212.031 1.97264 210.308 3.12389 208.857 4.57519L186.26 27.1973C184.366 29.0863 182.939 31.3922 182.095 33.9307L176.157 51.7578L138.921 88.9941C132.983 84.7168 126.47 81.3086 119.341 79.6484C103.008 75.8496 86.626 79.2187 75.4541 90.3906C70.8967 94.9667 67.507 100.572 65.5713 106.733C62.6416 115.796 54.2383 122.695 44.9903 123.56C33.418 124.668 22.6612 129.15 14.419 137.446C-7.86619 159.668 -3.8574 199.707 23.2324 226.782C50.3223 253.857 90.3321 257.812 112.578 235.605C120.879 227.363 125.352 216.611 126.47 204.985C127.329 195.781 134.229 187.344 143.281 184.409C149.444 182.47 155.05 179.079 159.629 174.521C170.796 163.35 174.15 147.002 170.371 130.698C168.716 123.55 165.308 117.026 161.016 111.069L198.242 73.8428L216.055 67.9053C218.593 67.0608 220.899 65.6345 222.788 63.7402L245.41 41.123C248.337 38.1954 249.983 34.2259 249.985 30.086C249.988 25.9462 248.348 21.9745 245.425 19.043ZM101.563 171.875C96.927 171.875 92.3956 170.5 88.5413 167.925C84.6871 165.35 81.683 161.689 79.9091 157.407C78.1352 153.124 77.671 148.411 78.5754 143.865C79.4797 139.319 81.7119 135.142 84.9897 131.865C88.2675 128.587 92.4437 126.355 96.9901 125.45C101.537 124.546 106.249 125.01 110.532 126.784C114.814 128.558 118.475 131.562 121.05 135.416C123.625 139.271 125 143.802 125 148.438C125 154.654 122.531 160.615 118.135 165.01C113.74 169.406 107.779 171.875 101.563 171.875Z" fill="black"/>
</svg>
